<svg width="16" height="16" viewBox="0 0 16 16" fill="none" xmlns="http://www.w3.org/2000/svg">
<path d="M15.2546 6.42251L8.33834 4.01633C8.2734 3.99456 8.19764 3.99456 8.1327 4.01633L1.21647 6.42251C1.08659 6.46606 1 6.58582 1 6.72736C1 6.8689 1.08659 6.98867 1.21647 7.03222L4.53929 8.15365L4.52847 9.74325C4.52847 9.7868 4.52847 9.84124 4.58259 9.89567C4.78823 10.1679 6.27105 11.0062 8.21928 11.0062C10.0701 11.0062 11.672 10.2332 11.8668 9.97189C11.9101 9.91745 11.9209 9.86301 11.9101 9.83035L11.9318 8.15365L13.4903 7.63104V9.04644L13.0574 9.74325C12.9492 9.91745 12.9492 10.1461 13.0574 10.3203L13.6419 11.2784L14.2263 10.3203C14.3346 10.1461 14.3346 9.91745 14.2263 9.74325L13.7934 9.03555V7.52216L15.2654 7.02133C15.3953 6.97778 15.4819 6.85801 15.4819 6.71647C15.471 6.58582 15.3953 6.46606 15.2546 6.42251Z" fill="#7835FF"/>
</svg>
